<svg width="221" height="221" viewBox="0 0 221 221" fill="none" xmlns="http://www.w3.org/2000/svg">
<path d="M38.1373 197.841C-1.82701 174.767 -1.82701 137.357 38.1373 114.284C78.1016 91.2107 142.897 91.2107 182.862 114.284C222.827 137.357 222.827 174.767 182.862 197.841C142.897 220.914 78.1016 220.914 38.1373 197.841Z" fill="#F5F5F5"/>
<path d="M70.1206 198.953C87.4612 198.953 101.518 190.837 101.518 180.825C101.518 170.813 87.4612 162.697 70.1206 162.697C52.78 162.697 38.7227 170.813 38.7227 180.825C38.7227 190.837 52.78 198.953 70.1206 198.953Z" fill="#E0E0E0"/>
<path d="M142.699 172.363C164.473 160.62 177.388 142.316 171.544 131.481C165.701 120.646 143.312 121.382 121.537 133.125C99.763 144.868 86.8485 163.172 92.692 174.007C98.5355 184.842 120.924 184.106 142.699 172.363Z" fill="#E0E0E0"/>
<path d="M164.356 146.617C168.711 141.427 175.531 138.044 183.2 136.049C190.772 134.079 192.13 129.421 187.11 127.909C181.42 126.195 174.321 129.345 169.744 133.724C161.765 141.357 160.766 147.2 160.766 147.2L164.356 146.617Z" fill="#4CB75D"/>
<path opacity="0.15" d="M164.356 146.617C168.711 141.427 175.531 138.044 183.2 136.049C190.772 134.079 192.13 129.421 187.11 127.909C181.42 126.195 174.321 129.345 169.744 133.724C161.765 141.357 160.766 147.2 160.766 147.2L164.356 146.617Z" fill="#263238"/>
<path d="M162.114 146.314C162.081 146.314 162.048 146.306 162.017 146.291C161.907 146.238 161.861 146.106 161.915 145.996C168.377 132.737 182.678 129.475 186.154 129.721C186.276 129.73 186.367 129.836 186.358 129.958C186.349 130.079 186.237 130.17 186.121 130.162C182.727 129.902 168.675 133.135 162.313 146.19C162.274 146.268 162.195 146.314 162.114 146.314Z" fill="white"/>
<path d="M160.766 147.997C160.766 148.934 161.782 149.502 162.592 149.03C166.64 146.673 172.547 145.371 182.104 148.09C187.185 149.536 189.687 148.569 190.758 146.499C191.949 144.201 189.427 141.98 186.557 140.932C176.776 137.358 167.948 139.798 160.766 146.928L160.766 147.997Z" fill="#4CB75D"/>
<path d="M161.323 148.186C161.262 148.186 161.201 148.161 161.158 148.112C161.076 148.021 161.084 147.882 161.175 147.8C169.62 140.252 182.704 141.721 187.656 144.666C187.761 144.728 187.795 144.864 187.733 144.969C187.67 145.074 187.535 145.108 187.43 145.046C182.578 142.162 169.754 140.726 161.47 148.13C161.428 148.168 161.375 148.186 161.323 148.186Z" fill="white"/>
<path d="M66.262 165.598C62.55 159.93 56.1768 155.766 48.7963 152.88C41.51 150.031 40.7117 145.244 45.8743 144.336C51.7263 143.305 58.4045 147.27 62.4334 152.159C69.455 160.68 69.7586 166.6 69.7586 166.6L66.262 165.598Z" fill="#4CB75D"/>
<path opacity="0.15" d="M66.262 165.598C62.55 159.93 56.1768 155.766 48.7963 152.88C41.51 150.031 40.7117 145.244 45.8743 144.336C51.7263 143.305 58.4045 147.27 62.4334 152.159C69.455 160.68 69.7586 166.6 69.7586 166.6L66.262 165.598Z" fill="#263238"/>
<path d="M68.5246 165.561C68.5573 165.565 68.5905 165.561 68.6232 165.55C68.739 165.51 68.7996 165.384 68.7593 165.269C63.9066 151.34 50.091 146.413 46.6098 146.247C46.4878 146.242 46.3849 146.336 46.3791 146.458C46.3738 146.58 46.475 146.684 46.5904 146.689C49.992 146.831 63.5641 151.7 68.3421 165.414C68.3708 165.497 68.4437 165.552 68.5246 165.561Z" fill="white"/>
<path d="M69.7918 166.33C69.6291 167.697 68.083 168.406 66.9395 167.639C63.1931 165.129 57.6102 163.501 48.4657 164.967C43.2492 165.803 40.8797 164.548 40.0593 162.366C39.1483 159.943 41.9148 158.035 44.8882 157.332C55.0228 154.937 63.5012 158.402 69.7918 166.33Z" fill="#4CB75D"/>
<path d="M69.0905 167.514C69.151 167.521 69.2138 167.503 69.2629 167.46C69.3544 167.379 69.3628 167.24 69.2819 167.148C61.7869 158.656 48.6206 158.571 43.3559 160.911C43.2445 160.96 43.1941 161.091 43.2436 161.203C43.2936 161.314 43.424 161.364 43.5354 161.315C48.6931 159.023 61.5977 159.11 68.9504 167.441C68.9884 167.483 69.0383 167.507 69.0905 167.514Z" fill="white"/>
<path d="M168.324 64.6076L168.325 64.6045L168.256 64.5687C168.253 64.5674 168.251 64.5661 168.248 64.5647L151.399 54.8655C151.394 54.8628 151.389 54.8602 151.383 54.8571L151.285 54.8067L151.283 54.8111C143.412 50.8406 132.91 52.0314 121.614 59.3354C98.9203 74.0098 81.6275 107.787 82.9893 134.777C83.6682 148.231 88.8551 157.456 96.6961 161.511L96.6944 161.514L96.7638 161.55C96.7669 161.551 96.7695 161.553 96.7726 161.554L113.625 171.256C113.627 171.256 113.63 171.258 113.632 171.259L113.715 171.302L113.717 171.298C121.59 175.281 132.101 174.094 143.406 166.783C166.099 152.108 183.393 118.332 182.031 91.3415C181.352 77.888 176.165 68.6625 168.324 64.6076Z" fill="#37474F"/>
<path d="M113.052 170.948L96.7781 161.552C96.7657 161.553 96.7657 161.553 96.7657 161.553L96.6901 161.508C88.8534 157.442 83.6688 148.217 82.9912 134.782C82.3834 122.745 85.4938 109.365 91.1218 96.9395L91.2354 96.6672L107.977 106.637C102.336 119.064 99.2382 132.443 99.8455 144.481C100.509 157.645 105.491 166.758 113.052 170.948Z" fill="#263238"/>
<path d="M143.407 166.783C166.1 152.108 183.393 118.332 182.031 91.3411C180.669 64.3508 161.169 54.3664 138.475 69.0413C115.782 83.7157 98.4888 117.492 99.8506 144.483C101.213 171.473 120.713 181.457 143.407 166.783Z" fill="#455A64"/>
<path d="M162.625 62.5139L134.184 121.097L128.061 114.462C126.173 112.41 123.481 111.233 120.676 111.233C118.138 111.233 115.712 112.179 113.842 113.899C109.771 117.66 109.518 124.037 113.277 128.115L129.404 145.585C131.189 147.518 133.621 148.661 136.251 148.804C136.437 148.814 136.622 148.819 136.809 148.819C137.29 148.819 137.777 148.784 138.267 148.715C141.566 148.224 144.4 146.145 145.847 143.155L178.466 75.9671C175.136 68.518 169.564 63.8854 162.625 62.5139Z" fill="#37474F"/>
<path d="M185.724 43.2153C185.546 43.1132 185.364 43.0164 185.177 42.9258C180.834 40.8263 175.595 42.6371 173.499 46.9665L137.306 121.515L135.25 119.287C134.638 118.622 133.944 118.075 133.198 117.648C132.119 117.029 127.531 114.372 126.789 113.944C123.572 112.088 119.375 112.437 116.487 115.093C112.953 118.358 112.733 123.896 115.996 127.436L132.123 144.906C132.736 145.571 133.439 146.126 134.205 146.562C135.258 147.161 139.83 149.812 140.577 150.246C141.757 150.93 143.089 151.331 144.487 151.407C145.063 151.438 145.642 151.414 146.236 151.33C149.1 150.904 151.563 149.098 152.818 146.503L195.636 58.3105C197.646 54.1601 196.078 49.1885 192.149 46.9254C191.97 46.8215 186.867 43.8734 185.724 43.2153Z" fill="#4CB75D"/>
<path opacity="0.15" d="M185.724 43.2153C185.546 43.1132 185.364 43.0164 185.177 42.9258C180.834 40.8263 175.595 42.6371 173.499 46.9665L137.306 121.515L135.25 119.287C134.638 118.622 133.944 118.075 133.198 117.648C132.119 117.029 127.531 114.372 126.789 113.944C123.572 112.088 119.375 112.437 116.487 115.093C112.953 118.358 112.733 123.896 115.996 127.436L132.123 144.906C132.736 145.571 133.439 146.126 134.205 146.562C135.258 147.161 139.83 149.812 140.577 150.246C141.757 150.93 143.089 151.331 144.487 151.407C145.063 151.438 145.642 151.414 146.236 151.33C149.1 150.904 151.563 149.098 152.818 146.503L195.636 58.3105C197.646 54.1601 196.078 49.1885 192.149 46.9254C191.97 46.8215 186.867 43.8734 185.724 43.2153Z" fill="#263238"/>
<path opacity="0.15" d="M140.576 150.245C139.831 149.812 135.258 147.162 134.204 146.561C133.439 146.124 132.735 145.569 132.122 144.906L115.995 127.437C115.263 126.638 114.711 125.733 114.328 124.782L120.741 128.482C121.12 129.437 121.679 130.343 122.416 131.141L138.543 148.61C139.144 149.261 139.827 149.808 140.576 150.245Z" fill="#263238"/>
<path opacity="0.15" d="M181.944 47.9841C181.121 48.7169 180.429 49.6221 179.918 50.6719L142.693 127.351L137.309 121.514L173.502 46.9675C174.008 45.9137 174.708 45.0125 175.531 44.2797L181.944 47.9841Z" fill="#263238"/>
<path d="M191.597 46.6323C187.254 44.5328 182.015 46.3437 179.919 50.6726L142.692 127.351L135.251 119.287C131.999 115.755 126.462 115.53 122.907 118.799C119.373 122.064 119.153 127.602 122.416 131.142L138.543 148.612C140.092 150.29 142.203 151.283 144.488 151.407C145.064 151.438 145.643 151.414 146.237 151.33C149.1 150.904 151.564 149.098 152.819 146.503L195.637 58.3104C197.738 53.9704 195.927 48.7323 191.597 46.6323Z" fill="#4CB75D"/>
<path d="M158.951 41.2483L156.474 41.9944L154.682 36.0159L157.155 35.2703L158.951 41.2483Z" fill="#E0E0E0"/>
<path d="M166.693 35.9385C166.789 36.2594 166.471 36.9503 165.99 37.0957C165.99 37.0957 166.221 37.3397 166.338 37.7286C166.48 38.1914 166.102 38.8137 165.357 39.0356C164.617 39.2575 159.687 40.7422 159.687 40.7422L158.018 35.1893L158.014 35.1889C158.014 35.1889 158.976 32.7327 159.023 32.3632C159.079 31.9994 158.504 30.631 158.426 30.3737C158.364 30.1642 159.266 29.7832 159.992 30.0758C160.16 30.1443 160.318 30.246 160.455 30.3958C160.739 30.707 160.952 31.012 161.105 31.3271C161.35 31.8138 161.45 32.3203 161.45 32.8949L164.876 31.8642C165.162 31.7784 165.412 31.8032 165.609 31.8872C165.915 32.0131 166.111 32.2752 166.175 32.4869C166.333 32.9877 166.04 33.3723 165.883 33.5217C165.883 33.5217 166.614 33.4616 166.821 34.1511C166.936 34.5374 166.744 35.0483 166.255 35.2998C166.255 35.2998 166.549 35.459 166.693 35.9385Z" fill="#E0E0E0"/>
<path d="M194.483 103.257L191.305 102.493L193.157 94.828L196.331 95.5896L194.483 103.257Z" fill="#E0E0E0"/>
<path d="M206.313 102.395C206.213 102.806 205.427 103.357 204.809 103.21C204.809 103.21 204.905 103.623 204.785 104.121C204.646 104.717 203.837 105.155 202.883 104.923C201.933 104.694 195.607 103.173 195.607 103.173L197.324 96.051L197.32 96.0479C197.32 96.0479 199.935 93.9806 200.221 93.6076C200.514 93.2465 200.758 91.387 200.838 91.0568C200.903 90.7881 202.13 90.9472 202.736 91.7291C202.874 91.9103 202.983 92.1225 203.037 92.3731C203.148 92.8937 203.186 93.3618 203.152 93.8034C203.109 94.4907 202.897 95.1068 202.53 95.734L206.926 96.7917C207.293 96.8806 207.549 97.0662 207.711 97.2841C207.964 97.6165 208.011 98.0267 207.945 98.299C207.798 98.9461 207.235 99.1794 206.968 99.2426C206.968 99.2426 207.804 99.6426 207.59 100.526C207.47 101.022 206.936 101.457 206.241 101.419C206.242 101.419 206.461 101.78 206.313 102.395Z" fill="#E0E0E0"/>
<path d="M33.957 98.6702L37.4258 99.7147L39.936 91.3432L36.4725 90.2992L33.957 98.6702Z" fill="#E0E0E0"/>
<path d="M23.1145 91.2345C22.9796 91.6836 23.4243 92.6511 24.0979 92.8549C24.0979 92.8549 23.7744 93.1965 23.6113 93.7411C23.4119 94.3891 23.9414 95.2611 24.9841 95.5714C26.0215 95.8826 32.9255 97.9613 32.9255 97.9613L35.2624 90.1852L35.2677 90.1847C35.2677 90.1847 33.92 86.7451 33.8542 86.2275C33.7759 85.7183 34.5817 83.8018 34.6896 83.4416C34.7775 83.1481 33.5143 82.6146 32.4972 83.0243C32.263 83.1203 32.0406 83.2626 31.8493 83.4725C31.4515 83.9084 31.1536 84.3358 30.9392 84.7769C30.5962 85.4584 30.4556 86.1674 30.4556 86.9723L25.6577 85.5287C25.2568 85.4089 24.9072 85.443 24.6305 85.561C24.2027 85.7373 23.9282 86.1042 23.8393 86.4012C23.6188 87.1027 24.0276 87.641 24.2473 87.8505C24.2473 87.8505 23.2241 87.7666 22.9346 88.7319C22.7723 89.2729 23.0411 89.9881 23.7266 90.3403C23.7266 90.3403 23.316 90.5631 23.1145 91.2345Z" fill="#E0E0E0"/>
</svg>
