<svg width="25" height="31" viewBox="0 0 25 31" fill="none" xmlns="http://www.w3.org/2000/svg">
<path d="M24.3598 23.4922C24.6106 23.4922 24.8139 23.2889 24.8139 23.0381V12.1397C24.8139 11.5976 24.6027 11.0432 24.2191 10.5785L20.8513 6.49801C20.6749 6.28422 20.472 6.10403 20.2518 5.96054C20.2653 5.82176 20.273 5.6816 20.273 5.5401V0.454163C20.273 0.203377 20.0696 6.10352e-05 19.8189 6.10352e-05C19.5681 6.10352e-05 19.3648 0.203377 19.3648 0.454163C19.3648 0.454163 19.3638 5.58339 19.3635 5.60507C19.2343 5.58218 19.1031 5.57037 18.9712 5.57037H13.0982C12.6847 5.57037 12.2794 5.68638 11.9165 5.89957C11.9008 5.9052 11.8853 5.9115 11.87 5.91894L7.44338 8.07514C6.95295 8.32114 6.56078 8.73377 6.339 9.23697C6.33658 9.24248 6.33428 9.24799 6.3321 9.25356L4.50189 13.8958C4.40992 14.1292 4.52447 14.3928 4.75782 14.4849C4.81249 14.5064 4.8688 14.5166 4.92426 14.5166C5.1053 14.5166 5.2764 14.4076 5.34682 14.2289L7.17346 9.59565C7.31084 9.28874 7.55103 9.03729 7.84583 8.88931L10.1846 7.75012L7.85019 10.5786C7.50065 11.002 7.31592 11.5419 7.31592 12.1398V27.8214C7.31592 28.004 7.33197 28.1828 7.36109 28.3571L2.68191 26.2837C1.62488 25.8154 1.14583 24.5713 1.61423 23.5105C1.61622 23.5059 1.61816 23.5013 1.6201 23.4967L4.57981 16.1412C4.67342 15.9085 4.56074 15.644 4.32806 15.5504C4.09525 15.4568 3.83091 15.5695 3.73724 15.8021L0.780131 23.1508C0.115205 24.6675 0.802049 26.444 2.31397 27.1139L7.80097 29.5452C7.80769 29.5482 7.81453 29.5504 7.82131 29.553C8.37822 30.4232 9.34104 31 10.4341 31H21.6353C23.3583 31 24.814 29.5443 24.814 27.8213V25.1572C24.814 24.9064 24.6107 24.7031 24.3599 24.7031C24.1091 24.7031 23.9058 24.9064 23.9058 25.1572V27.8213C23.9058 29.052 22.866 30.0918 21.6353 30.0918H10.4341C9.21552 30.0918 8.22413 29.0733 8.22413 27.8213V12.1397C8.22413 11.7498 8.33396 11.4191 8.55066 11.1566L11.9185 7.07611C12.2319 6.69636 12.6619 6.47852 13.0982 6.47852H18.9712C19.0568 6.47852 19.142 6.48718 19.2262 6.50352C18.942 7.47294 18.2378 8.28185 17.2869 8.68721C17.0382 8.27131 16.5837 7.99219 16.0649 7.99219C15.2803 7.99219 14.642 8.63047 14.642 9.41504C14.642 10.1996 15.2803 10.8379 16.0649 10.8379C16.7904 10.8379 17.3904 10.2919 17.4767 9.58923C18.6997 9.12666 19.6245 8.14652 20.0365 6.95018C20.0761 6.98996 20.1143 7.03179 20.1509 7.07611L23.5187 11.1567C23.7683 11.459 23.9058 11.8082 23.9058 12.1397V23.0381C23.9057 23.2889 24.109 23.4922 24.3598 23.4922ZM16.0649 9.92969C15.7811 9.92969 15.5502 9.69882 15.5502 9.41504C15.5502 9.13126 15.7811 8.90039 16.0649 8.90039C16.3487 8.90039 16.5795 9.13126 16.5795 9.41504C16.5795 9.69882 16.3487 9.92969 16.0649 9.92969Z" fill="#4CB75D"/>
<path d="M12.1294 24.1582C12.2456 24.1582 12.3619 24.1139 12.4505 24.0252L20.2005 16.2752C20.3779 16.0978 20.3779 15.8103 20.2005 15.633C20.0232 15.4557 19.7356 15.4557 19.5584 15.633L11.8084 23.383C11.5188 23.6529 11.741 24.1719 12.1294 24.1582Z" fill="#4CB75D"/>
<path d="M13.0981 19.375C14.1831 19.375 15.0659 18.4922 15.0659 17.4072C15.0659 16.3222 14.1831 15.4395 13.0981 15.4395H13.0376C11.9526 15.4395 11.0698 16.3222 11.0698 17.4072C11.0698 18.4922 11.9526 19.375 13.0376 19.375H13.0981ZM11.978 17.4072C11.978 16.823 12.4534 16.3477 13.0376 16.3477H13.0981C13.6824 16.3477 14.1577 16.823 14.1577 17.4072C14.1577 17.9914 13.6824 18.4668 13.0981 18.4668H13.0376C12.4534 18.4668 11.978 17.9914 11.978 17.4072Z" fill="#4CB75D"/>
<path d="M18.9712 24.1582H19.0317C20.1167 24.1582 20.9995 23.2754 20.9995 22.1904C20.9995 21.1054 20.1167 20.2227 19.0317 20.2227H18.9712C17.8862 20.2227 17.0034 21.1054 17.0034 22.1904C17.0034 23.2754 17.8862 24.1582 18.9712 24.1582ZM18.9712 21.1309H19.0317C19.616 21.1309 20.0913 21.6062 20.0913 22.1904C20.0913 22.7746 19.616 23.25 19.0317 23.25H18.9712C18.387 23.25 17.9116 22.7746 17.9116 22.1904C17.9116 21.6062 18.387 21.1309 18.9712 21.1309Z" fill="#4CB75D"/>
</svg>
