<svg width="32" height="31" viewBox="0 0 32 31" fill="none" xmlns="http://www.w3.org/2000/svg">
<g clip-path="url(#clip0_118_2345)">
<path d="M30.2727 6.84007L16.1975 0.0451377C16.0727 -0.0150459 15.9274 -0.0150459 15.8026 0.0451377L1.72736 6.84007C1.57042 6.91582 1.4707 7.07475 1.4707 7.249V23.751C1.4707 23.9252 1.57042 24.0842 1.72736 24.1599L15.8026 30.9549C15.8649 30.985 15.9325 31 16 31C16.0675 31 16.135 30.985 16.1975 30.9549L30.2727 24.1599C30.4296 24.0842 30.5293 23.9252 30.5293 23.751V7.24907C30.5293 7.07469 30.4295 6.91588 30.2727 6.84007ZM16 0.958366L29.0307 7.249L25.2534 9.07256C25.2295 9.05433 25.2042 9.0375 25.1765 9.02412L12.2343 2.77629L16 0.958366ZM11.2088 3.28972L24.2205 9.57122L21.5556 10.8578L8.54918 4.57883L11.2088 3.28972ZM24.525 10.4327V15.1884L22.0357 16.3901V11.6344L24.525 10.4327ZM29.6211 23.4661L16.4541 29.8224V14.3289L19.5949 12.8127C19.8207 12.7037 19.9154 12.4322 19.8064 12.2063C19.6973 11.9806 19.4259 11.8857 19.2 11.9949L16 13.5397L14.7409 12.9318C14.515 12.8226 14.2436 12.9175 14.1345 13.1433C14.0255 13.3691 14.1202 13.6406 14.346 13.7497L15.5459 14.3289V29.8224L2.37891 23.4659V7.97248L12.4055 12.8129C12.4691 12.8437 12.5364 12.8582 12.6025 12.8582C12.7714 12.8582 12.9335 12.7636 13.0118 12.6014C13.1208 12.3756 13.0261 12.1041 12.8003 11.995L2.9693 7.249L7.48034 5.07126L21.1212 11.6565C21.1232 11.6593 21.1254 11.6618 21.1275 11.6645V17.1137C21.1275 17.2699 21.2078 17.4152 21.3402 17.4983C21.4137 17.5445 21.4976 17.5678 21.5816 17.5678C21.649 17.5678 21.7165 17.5528 21.779 17.5226L25.1765 15.8824C25.3334 15.8067 25.4332 15.6478 25.4332 15.4735V9.99432L29.6211 7.97254V23.4661Z" fill="#4CB75D"/>
<path d="M6.12639 21.7048L4.06083 20.7076C3.83487 20.5985 3.5635 20.6933 3.45445 20.9191C3.34541 21.1449 3.4401 21.4164 3.66594 21.5255L5.7315 22.5226C5.79513 22.5534 5.8624 22.5679 5.92858 22.5679C6.09738 22.5679 6.25953 22.4733 6.33782 22.3111C6.44692 22.0852 6.35223 21.8139 6.12639 21.7048Z" fill="#4CB75D"/>
<path d="M8.02742 20.4674L4.06372 18.5539C3.83782 18.4448 3.56639 18.5395 3.45734 18.7654C3.34836 18.9913 3.44306 19.2628 3.6689 19.3718L7.6326 21.2853C7.69623 21.316 7.7635 21.3306 7.82968 21.3306C7.99848 21.3306 8.16063 21.236 8.23891 21.0738C8.34796 20.8479 8.25326 20.5764 8.02742 20.4674Z" fill="#4CB75D"/>
</g>
<defs>
<clipPath id="clip0_118_2345">
<rect width="31" height="31" fill="white" transform="translate(0.5)"/>
</clipPath>
</defs>
</svg>
