<svg width="30" height="23" viewBox="0 0 30 23" fill="none" xmlns="http://www.w3.org/2000/svg">
<path d="M28.3672 6.62898H22.654L17.3111 1.02733C16.7249 0.412838 15.7481 0.389672 15.1335 0.975846C15.1162 0.992385 15.0994 1.00938 15.083 1.02654C15.0666 1.00938 15.0499 0.992441 15.0325 0.975846C14.4179 0.389728 13.4411 0.412781 12.8549 1.02733L7.51203 6.62892H4.93805C4.70339 6.62892 4.51324 6.81912 4.51324 7.05372C4.51324 7.28833 4.70339 7.47853 4.93805 7.47853H6.70167L6.65845 7.52384C6.19813 8.00653 6.11374 8.71262 6.39638 9.27749C5.90621 9.27749 2.37665 9.27749 1.7988 9.27749C1.59693 9.27749 1.43262 9.11323 1.43262 8.91131V7.84477C1.43262 7.64284 1.59687 7.47859 1.7988 7.47859H2.94385C3.17851 7.47859 3.36865 7.28839 3.36865 7.05378C3.36865 6.81918 3.17851 6.62898 2.94385 6.62898H1.7988C1.1284 6.62898 0.583008 7.17437 0.583008 7.84477V8.91137C0.583008 9.58177 1.1284 10.1272 1.7988 10.1272H2.41646L4.4186 20.4911C4.63774 21.6254 5.63524 22.4488 6.79054 22.4488H23.3974C24.5526 22.4488 25.5502 21.6255 25.7694 20.4911L25.9057 19.7852C25.9502 19.5549 25.7995 19.3321 25.5692 19.2876C25.339 19.2431 25.116 19.3938 25.0715 19.6241L24.9352 20.33C24.7931 21.0654 24.1464 21.5992 23.3975 21.5992H6.79054C6.04152 21.5992 5.39486 21.0654 5.25286 20.3301L3.28176 10.1271H26.9061L25.4515 17.6567C25.4071 17.887 25.5577 18.1098 25.788 18.1543C26.0204 18.1992 26.2416 18.0463 26.2857 17.8178L27.7714 10.1271H28.3672C29.0376 10.1271 29.583 9.58171 29.583 8.91131V7.84477C29.583 7.17437 29.0376 6.62898 28.3672 6.62898ZM15.083 3.15441L18.3971 6.62898H11.7689L15.083 3.15441ZM7.29628 9.08661C7.02072 8.8238 7.01036 8.3858 7.27323 8.11024L13.4697 1.61373C13.7325 1.33818 14.1705 1.32781 14.446 1.59062C14.7151 1.84721 14.7368 2.28634 14.4691 2.56699L8.27265 9.0635C8.00978 9.33912 7.57178 9.34943 7.29628 9.08661ZM9.24268 9.27749L10.9586 7.47853H19.2075L20.9233 9.27749H9.24268ZM22.8697 9.08661C22.5942 9.34943 22.1561 9.339 21.8934 9.06356L15.6968 2.56699C15.4289 2.28606 15.4512 1.84692 15.7199 1.59062C15.9954 1.32775 16.4334 1.33818 16.6963 1.61368L22.8927 8.11019C23.1556 8.3858 23.1453 8.8238 22.8697 9.08661ZM28.7334 8.91137C28.7334 9.11329 28.5691 9.27755 28.3672 9.27755C27.7898 9.27755 24.3334 9.27755 23.7696 9.27755C24.0523 8.71273 23.968 8.00659 23.5076 7.5239L23.4643 7.47859H28.3672C28.5691 7.47859 28.7334 7.64284 28.7334 7.84477V8.91137Z" fill="#4CB75D"/>
<path d="M9.16955 12.2642C8.47547 12.3864 8.01266 13.0468 8.13478 13.7411L9.02806 18.8143C9.1504 19.5093 9.80998 19.9714 10.5049 19.849C11.1989 19.7269 11.6617 19.0663 11.5396 18.3722L10.6463 13.2989C10.5243 12.6053 9.86368 12.1421 9.16955 12.2642ZM10.3576 19.0123C10.1252 19.0532 9.90559 18.8992 9.86481 18.6671L8.97159 13.5938C8.93075 13.3623 9.08509 13.1418 9.31681 13.101C9.54745 13.0603 9.76886 13.2142 9.80958 13.4462L10.7028 18.5195C10.7436 18.7509 10.5893 18.9715 10.3576 19.0123Z" fill="#4CB75D"/>
<path d="M13.8081 13.52V18.5932C13.8081 19.2963 14.3801 19.8683 15.0832 19.8683C15.7863 19.8683 16.3583 19.2963 16.3583 18.5932V13.52C16.3583 12.8169 15.7863 12.2449 15.0832 12.2449C14.3801 12.2449 13.8081 12.8169 13.8081 13.52ZM15.5087 13.52V18.5932C15.5087 18.8278 15.3178 19.0187 15.0832 19.0187C14.8486 19.0187 14.6577 18.8278 14.6577 18.5932V13.52C14.6577 13.2854 14.8486 13.0945 15.0832 13.0945C15.3178 13.0945 15.5087 13.2854 15.5087 13.52Z" fill="#4CB75D"/>
<path d="M20.9964 12.2641C20.3046 12.1425 19.6415 12.6065 19.5197 13.2988L18.6265 18.3721C18.5044 19.066 18.9668 19.7268 19.6613 19.849C20.3577 19.9715 21.0159 19.5079 21.138 18.8143L22.0313 13.7411C22.1534 13.047 21.6908 12.3864 20.9964 12.2641ZM21.1945 13.5938L20.3012 18.667C20.2605 18.8987 20.0414 19.0532 19.8085 19.0123C19.5769 18.9715 19.4224 18.7511 19.4632 18.5195L20.3565 13.4462C20.3969 13.2163 20.6167 13.0603 20.8492 13.1009C21.0808 13.1417 21.2354 13.362 21.1945 13.5938Z" fill="#4CB75D"/>
</svg>
