<svg width="48" height="46" viewBox="0 0 48 46" fill="none" xmlns="http://www.w3.org/2000/svg">
<path d="M46.7515 5.87253L43.9399 5.18038C43.8772 4.86482 43.6962 4.58038 43.4254 4.39128L41.7468 3.22719C41.4713 3.03585 41.1481 2.93469 40.8122 2.93469H35.7413L34.6069 1.87813C34.2452 1.54138 33.7736 1.35585 33.2794 1.35585H30.6766C30.4842 0.586066 29.7888 0.0133472 28.9603 0.0133472H19.3144C18.9261 0.0133472 18.6112 0.32816 18.6112 0.716472C18.6112 1.10478 18.9261 1.4196 19.3144 1.4196H21.7969L23.2884 2.91116H14.4968C14.3403 2.91116 14.1929 2.85013 14.0822 2.73932L12.762 1.41913H16.0329C16.4213 1.41913 16.7361 1.10432 16.7361 0.716004C16.7361 0.327691 16.4213 0.0128784 16.0329 0.0128784H5.0085C4.53328 0.0128784 4.08187 0.21866 3.77016 0.577347L0.431719 4.41913C0.153281 4.73947 0 5.14963 0 5.57403V10.3372C0 10.7616 0.153281 11.1717 0.431625 11.492L3.77016 15.3347C4.08197 15.6936 4.53337 15.8993 5.00859 15.8993H9.88978L10.3825 16.6125C7.58663 22.5336 6.76359 29.1393 8.06588 35.2255C8.09081 35.3418 8.03878 35.4573 7.93678 35.5129L5.33306 36.9302C4.80488 37.2177 4.47684 37.7699 4.47684 38.3712V44.3464C4.47684 45.251 5.21287 45.987 6.11747 45.987H28.1224C29.027 45.987 29.763 45.251 29.763 44.3464V39.7509C29.763 39.3125 29.5923 38.9005 29.2823 38.5906L26.0677 35.3771C25.7577 35.0674 25.3459 34.8968 24.9079 34.8968H20.5263C20.333 34.8968 20.1757 34.7395 20.1757 34.5462V31.4524C20.1757 31.0641 19.8608 30.7493 19.4725 30.7493C19.0842 30.7493 18.7694 31.0641 18.7694 31.4524V34.5462C18.7694 35.5149 19.5576 36.303 20.5263 36.303H21.8309V40.2257C21.8309 40.3549 21.7257 40.4601 21.5965 40.4601H5.88291V38.3712C5.88291 38.2853 5.92978 38.2064 6.00516 38.1654L8.60897 36.7481C9.25266 36.3976 9.59475 35.6504 9.44091 34.9313C9.41888 34.8283 9.39891 34.7248 9.37819 34.6215H12.6491C13.7872 34.6215 14.6653 33.627 14.5357 32.497C14.1942 29.5235 14.3588 26.4763 15.0249 23.44C15.149 22.8744 15.0307 22.2759 14.7005 21.7978L11.6056 17.3196C11.637 17.2524 11.6674 17.1848 11.6993 17.1177C11.886 16.7261 11.8492 16.2618 11.6036 15.9061L10.9892 15.0167C10.7628 14.6889 10.3897 14.4931 9.99122 14.4931H5.00859C4.94072 14.4931 4.87622 14.4638 4.83169 14.4125L1.49316 10.5698C1.43709 10.5052 1.40625 10.4226 1.40625 10.3372V5.57403C1.40625 5.48863 1.43719 5.40603 1.49316 5.34153L4.83159 1.50003C4.87612 1.44875 4.94063 1.41932 5.0085 1.41932H10.7732L13.0877 3.73382C13.4641 4.11022 13.9645 4.3175 14.4967 4.3175H23.7835C24.271 4.3175 24.7067 4.0265 24.8933 3.57594C25.0798 3.12547 24.9775 2.61172 24.6329 2.267L23.7856 1.41969H28.9604C29.1615 1.41969 29.3251 1.58328 29.3251 1.78438V14.1275C29.3251 14.3291 29.1615 14.4931 28.9604 14.4931H23.2754C22.3708 14.4931 21.6348 15.2292 21.6348 16.1338V20.8428C21.6348 21.0177 21.5723 21.1873 21.4594 21.3196L19.2827 23.8656C18.9519 24.2522 18.7698 24.7458 18.7698 25.2555V28.1712C18.7698 28.5595 19.0846 28.8743 19.4729 28.8743C19.8612 28.8743 20.176 28.5595 20.176 28.1712V25.2555C20.176 25.0808 20.2383 24.9118 20.3514 24.7796L22.529 22.2327C22.8425 21.8649 23.0202 21.4011 23.0377 20.9196H25.1786C26.0832 20.9196 26.8192 20.1836 26.8192 19.279V15.8993H28.9605C29.7891 15.8993 30.4846 15.3262 30.6769 14.5558H33.2796C33.7738 14.5558 34.2454 14.3703 34.6072 14.0335L35.7415 12.977H40.8124C41.1499 12.977 41.4739 12.8749 41.7464 12.6838L43.4249 11.5198C43.6957 11.3324 43.8772 11.0479 43.94 10.7313L46.7515 10.0392C47.4867 9.85822 48.0001 9.20319 48.0001 8.44607V7.46563C48 6.7085 47.4865 6.05347 46.7515 5.87253ZM21.5963 41.8663C22.5009 41.8663 23.237 41.1302 23.237 40.2256V36.3029H24.9077C24.9703 36.3029 25.0292 36.3273 25.0734 36.3716L28.2879 39.585C28.3323 39.6293 28.3566 39.6882 28.3566 39.7508V44.3463C28.3566 44.4755 28.2515 44.5807 28.1222 44.5807H6.11728C5.98809 44.5807 5.88291 44.4755 5.88291 44.3463V41.8663H21.5963ZM13.5435 22.5973C13.6528 22.7554 13.6921 22.9528 13.6513 23.1386C12.9519 26.3268 12.7793 29.5293 13.1385 32.6573C13.1726 32.9542 12.9466 33.2152 12.649 33.2152H9.13556C8.45578 28.4758 9.08494 23.4833 10.9462 18.8389L13.5435 22.5973ZM25.4128 19.2791C25.4128 19.4083 25.3077 19.5134 25.1784 19.5134H23.0409V16.1338C23.0409 16.0046 23.1461 15.8994 23.2753 15.8994H25.4128V19.2791ZM33.6488 13.0044C33.5482 13.0981 33.4169 13.1497 33.2795 13.1497H30.7312V2.76219H33.2795C33.417 2.76219 33.5482 2.81375 33.6487 2.90732L34.7616 3.94382V11.968L33.6488 13.0044ZM42.5597 10.4086L40.942 11.5304C40.9043 11.5569 40.8593 11.5709 40.8122 11.5709H36.1678V4.34094H40.8122C40.8592 4.34094 40.9062 4.35557 40.9449 4.38247L42.5597 5.50222V10.4086ZM46.5938 8.44625C46.5938 8.55444 46.5204 8.648 46.4153 8.67388L43.9659 9.27688V6.6351L46.4154 7.2381C46.5204 7.26397 46.5938 7.35753 46.5938 7.46563V8.44625Z" fill="#4CB75D"/>
<path d="M8.26664 3.66791H7.10742C6.71911 3.66791 6.4043 3.98272 6.4043 4.37103C6.4043 4.75935 6.71911 5.07416 7.10742 5.07416H8.26664C8.65495 5.07416 8.96977 4.75935 8.96977 4.37103C8.96977 3.98272 8.65495 3.66791 8.26664 3.66791Z" fill="#4CB75D"/>
<path d="M8.26664 7.25299H7.10742C6.71911 7.25299 6.4043 7.5678 6.4043 7.95612C6.4043 8.34443 6.71911 8.65924 7.10742 8.65924H8.26664C8.65495 8.65924 8.96977 8.34443 8.96977 7.95612C8.96977 7.5678 8.65495 7.25299 8.26664 7.25299Z" fill="#4CB75D"/>
<path d="M8.26664 10.8382H7.10742C6.71911 10.8382 6.4043 11.153 6.4043 11.5413C6.4043 11.9296 6.71911 12.2444 7.10742 12.2444H8.26664C8.65495 12.2444 8.96977 11.9296 8.96977 11.5413C8.96977 11.153 8.65495 10.8382 8.26664 10.8382Z" fill="#4CB75D"/>
<path d="M24.9857 8.42462V7.48712C24.9857 6.58253 24.2497 5.8465 23.3451 5.8465H14.8232C13.9186 5.8465 13.1826 6.58253 13.1826 7.48712V8.42462C13.1826 9.32922 13.9186 10.0652 14.8232 10.0652H23.3451C24.2497 10.0652 24.9857 9.32922 24.9857 8.42462ZM14.5889 8.42462V7.48712C14.5889 7.35793 14.6941 7.25275 14.8232 7.25275H23.3451C23.4743 7.25275 23.5795 7.35793 23.5795 7.48712V8.42462C23.5795 8.55381 23.4743 8.659 23.3451 8.659H14.8232C14.694 8.659 14.5889 8.55381 14.5889 8.42462Z" fill="#4CB75D"/>
</svg>
