<svg width="51" height="50" viewBox="0 0 51 50" fill="none" xmlns="http://www.w3.org/2000/svg">
<path d="M47.5604 1.53809H46.0662C45.0621 1.53809 44.2452 2.33889 44.2452 3.32336V3.36914H6.70496V3.32336C6.70496 2.33889 5.88814 1.53809 4.88397 1.53809H3.38983C2.38566 1.53809 1.56885 2.33889 1.56885 3.32336V4.78821C1.56885 5.77269 2.38566 6.57349 3.38983 6.57349H3.43652V43.3777H3.38983C2.38566 43.3777 1.56885 44.1785 1.56885 45.163V46.6278C1.56885 47.6123 2.38566 48.4131 3.38983 48.4131H4.88397C5.88814 48.4131 6.70496 47.6123 6.70496 46.6278V46.582H37.4066C37.7933 46.582 38.107 46.2748 38.107 45.8954C38.107 45.516 37.7933 45.2087 37.4066 45.2087H6.70496V45.163C6.70496 44.1785 5.88814 43.3777 4.88397 43.3777H4.83728V6.57349H4.88397C5.88814 6.57349 6.70496 5.77269 6.70496 4.78821V4.74243H44.2452V4.78821C44.2452 5.77269 45.0621 6.57349 46.0662 6.57349H46.1129V7.37629C46.1129 7.75566 46.4266 8.06294 46.8133 8.06294C47.2 8.06294 47.5137 7.75566 47.5137 7.37629V6.57349H47.5604C48.5645 6.57349 49.3814 5.77269 49.3814 4.78821V3.32336C49.3814 2.33889 48.5645 1.53809 47.5604 1.53809ZM5.3042 45.163V46.6278C5.3042 46.855 5.11568 47.0398 4.88397 47.0398H3.38983C3.15812 47.0398 2.9696 46.855 2.9696 46.6278V45.163C2.9696 44.9358 3.15812 44.751 3.38983 44.751H4.88397C5.11568 44.751 5.3042 44.9358 5.3042 45.163ZM5.3042 4.78821C5.3042 5.01537 5.11568 5.2002 4.88397 5.2002H3.38983C3.15812 5.2002 2.9696 5.01537 2.9696 4.78821V3.32336C2.9696 3.0962 3.15812 2.91138 3.38983 2.91138H4.88397C5.11568 2.91138 5.3042 3.0962 5.3042 3.32336V4.78821ZM47.9806 4.78821C47.9806 5.01537 47.7921 5.2002 47.5604 5.2002H46.0662C45.8345 5.2002 45.646 5.01537 45.646 4.78821V3.32336C45.646 3.0962 45.8345 2.91138 46.0662 2.91138H47.5604C47.7921 2.91138 47.9806 3.0962 47.9806 3.32336V4.78821Z" fill="#4CB75D"/>
<path d="M47.5604 43.3777H47.5137V10.3626C47.5137 9.98324 47.2 9.67596 46.8134 9.67596C46.4267 9.67596 46.113 9.98324 46.113 10.3626V43.3777H46.0663C45.0621 43.3777 44.2453 44.1785 44.2453 45.1629V45.2087H40.5099C40.1233 45.2087 39.8096 45.516 39.8096 45.8954C39.8096 46.2747 40.1233 46.582 40.5099 46.582H44.2453V46.6278C44.2453 47.6123 45.0621 48.4131 46.0663 48.4131H47.5604C48.5646 48.4131 49.3814 47.6123 49.3814 46.6278V45.1629C49.3814 44.1785 48.5646 43.3777 47.5604 43.3777ZM47.9807 46.6278C47.9807 46.855 47.7921 47.0398 47.5604 47.0398H46.0663C45.8346 47.0398 45.6461 46.855 45.6461 46.6278V45.1629C45.6461 44.9358 45.8346 44.751 46.0663 44.751H47.5604C47.7921 44.751 47.9807 44.9358 47.9807 45.1629V46.6278Z" fill="#4CB75D"/>
<path d="M19.8472 27.3016C19.8472 27.4836 19.9207 27.6581 20.052 27.7874L25.0702 32.7072C25.2071 32.8408 25.3866 32.9081 25.5658 32.9081C25.7449 32.9081 25.9244 32.8408 26.0613 32.7072L33.3248 25.5861C33.4561 25.4574 33.5296 25.2823 33.5296 25.1003C33.5296 24.9181 33.4561 24.7438 33.3248 24.6148L28.306 19.6947C28.1747 19.566 27.9967 19.4936 27.8111 19.4936C27.6255 19.4936 27.4469 19.566 27.3155 19.6947L27.2858 19.7242C25.6761 17.6099 25.796 14.3237 25.8795 13.3012C25.9302 12.6832 25.5264 12.1044 24.9197 11.9259L7.87244 6.89935C7.87099 6.89906 7.86982 6.89906 7.86894 6.89849C7.86807 6.8982 7.86778 6.8982 7.8669 6.89792C7.86311 6.89677 7.85902 6.89563 7.85464 6.89449L7.85435 6.8942C7.7992 6.87961 7.74375 6.87217 7.6883 6.87074C7.68743 6.87074 7.68626 6.87074 7.68539 6.87074C7.68276 6.87074 7.67984 6.87045 7.67721 6.87045C7.67459 6.87045 7.67255 6.87045 7.66992 6.87045C7.66846 6.87045 7.667 6.87045 7.66554 6.87045C7.66204 6.87045 7.65883 6.87045 7.65533 6.87074C7.65474 6.87074 7.65387 6.87074 7.65328 6.87074C7.53539 6.8736 7.41749 6.90536 7.31156 6.96773C7.1957 7.03553 7.10641 7.13166 7.04804 7.24296C7.04775 7.24296 7.04775 7.24324 7.04775 7.24324C7.046 7.24639 7.04425 7.25011 7.0425 7.25326C7.04191 7.2544 7.04133 7.25583 7.04075 7.25698C7.03958 7.25898 7.03841 7.26155 7.03754 7.26356C7.03637 7.26585 7.0352 7.26814 7.03462 7.27014C7.03433 7.27042 7.03374 7.27128 7.03345 7.27185C7.00806 7.3265 6.99055 7.38343 6.98005 7.44151C6.98005 7.44266 6.97975 7.44323 6.97975 7.44437C6.97917 7.44724 6.97888 7.45038 6.97829 7.45324C6.978 7.45496 6.97771 7.45696 6.97713 7.45868C6.97713 7.46068 6.97684 7.46297 6.97654 7.46497C6.97625 7.46783 6.97596 7.47041 6.97538 7.47298C6.97538 7.47441 6.97508 7.47585 6.97508 7.47728C6.97479 7.48071 6.97392 7.48443 6.97392 7.48758C6.97392 7.48786 6.97363 7.48843 6.97363 7.48872C6.96633 7.56025 6.97071 7.63349 6.98705 7.70587C6.98763 7.70759 6.98793 7.7093 6.98822 7.71102C6.98851 7.71274 6.9888 7.71503 6.98968 7.71674C6.99055 7.7196 6.99114 7.72304 6.99172 7.7259C6.9923 7.72676 6.9923 7.7279 6.99259 7.72905C6.99376 7.73277 6.99464 7.73648 6.9958 7.74049C6.9958 7.74078 6.9958 7.74106 6.99639 7.74135C6.99726 7.74593 6.99872 7.7505 6.99989 7.7548L10.3921 18.8104C10.5035 19.1737 10.894 19.3794 11.2646 19.2701C11.6346 19.1608 11.8448 18.778 11.7333 18.415L9.14246 9.97123L14.9363 15.6515C14.5567 16.2108 14.3524 16.8669 14.3512 17.5529C14.3498 18.4736 14.714 19.3379 15.3767 19.9877C16.1104 20.7069 17.1244 21.0686 18.1598 20.9813C19.4547 20.8714 20.6967 21.2989 21.5678 22.1532L23.188 23.7413L21.0801 25.8081C18.6306 23.8913 15.014 23.9184 13.458 24.036L12.5942 21.2202C12.4827 20.8571 12.0922 20.6511 11.7216 20.7607C11.3513 20.8697 11.1412 21.2528 11.2529 21.6162L12.1275 24.4669C12.3099 25.0617 12.9 25.4579 13.5303 25.4082C14.573 25.3263 17.9243 25.209 20.0809 26.7878L20.052 26.8158C19.9207 26.9445 19.8472 27.1191 19.8472 27.3016ZM31.8388 25.1003L25.5658 31.2504L21.538 27.3016L21.6031 27.2372L24.6739 24.2271L27.7445 21.2165C27.7451 21.2159 27.7457 21.215 27.7463 21.2148L27.8111 21.1515L31.8388 25.1003ZM26.2869 20.7038L24.1784 22.7703L24.0325 22.627L22.5597 21.183C21.6877 20.3281 21.2523 19.1099 21.3641 17.8402C21.454 16.8248 21.0848 15.8303 20.3511 15.1111C19.6899 14.4627 18.81 14.106 17.8736 14.106H17.8674C17.1671 14.1068 16.4976 14.3074 15.9271 14.6805L10.1329 8.99991L24.4802 13.2299C24.3599 14.756 24.3316 18.302 26.2869 20.7038ZM18.0393 19.6134C17.4174 19.6655 16.8078 19.4484 16.3675 19.0166C15.97 18.627 15.7511 18.108 15.752 17.5552C15.7529 17.0019 15.9735 16.4812 16.3733 16.0892C16.7737 15.6967 17.3054 15.4798 17.8698 15.4793H17.8736C18.4359 15.4793 18.9641 15.693 19.3604 16.0821C19.8008 16.5138 20.0226 17.1112 19.9686 17.7215C19.9049 18.4396 19.9762 19.1471 20.1699 19.8109C19.4929 19.6209 18.7718 19.5508 18.0393 19.6134Z" fill="#4CB75D"/>
<path d="M24.6911 27.1877C24.4174 27.4561 24.4174 27.8907 24.6911 28.1588C24.8274 28.2929 25.0069 28.3599 25.1861 28.3599C25.3653 28.3599 25.5447 28.2929 25.6816 28.1588L28.685 25.2142C28.9588 24.9458 28.9588 24.5109 28.685 24.2429C28.4113 23.9748 27.9677 23.9748 27.6946 24.2429L24.6911 27.1877Z" fill="#4CB75D"/>
</svg>
