<svg width="55" height="55" viewBox="0 0 55 55" fill="none" xmlns="http://www.w3.org/2000/svg">
<g clip-path="url(#clip0_118_2494)">
<path d="M52.2701 26.1496L50.6048 25.2471C50.4782 25.1785 50.4093 25.0343 50.4334 24.8885C50.546 24.2068 50.6031 23.5088 50.6031 22.8143C50.6031 22.1196 50.546 21.4217 50.4334 20.7402C50.4092 20.5942 50.4782 20.45 50.6048 20.3814L52.2701 19.479C52.7283 19.2308 53.0624 18.8189 53.2108 18.3193C53.3592 17.8198 53.3042 17.2922 53.056 16.8342L51.2055 13.4195C50.6929 12.4737 49.5064 12.1213 48.5607 12.6338L46.8937 13.5371C46.7672 13.6058 46.61 13.5857 46.503 13.4876C45.2139 12.3043 43.7253 11.4162 42.0785 10.8476C41.9345 10.7978 41.8377 10.6672 41.8377 10.5226V8.63038C41.8377 7.55455 40.9624 6.67938 39.8867 6.67938H36.003C34.9273 6.67938 34.052 7.55455 34.052 8.63038V10.5226C34.052 10.6672 33.9552 10.7978 33.8112 10.8476C32.1644 11.4162 30.6757 12.3044 29.3868 13.4876C29.2797 13.5859 29.1226 13.6057 28.996 13.5371L27.329 12.6337C26.3831 12.1212 25.1968 12.4738 24.6842 13.4196L22.8338 16.8342C22.5856 17.2923 22.5306 17.8198 22.679 18.3193C22.7395 18.523 22.8323 18.711 22.9503 18.8803H12.6958C12.2507 18.8803 11.8899 19.241 11.8899 19.6861C11.8899 20.1312 12.2507 20.492 12.6958 20.492H38.2235C38.2703 20.492 38.3085 20.5301 38.3085 20.577V25.1367H3.31966V20.5771C3.31966 20.5301 3.35779 20.4921 3.40463 20.4921H9.04256C9.48761 20.4921 9.84844 20.1314 9.84844 19.6862C9.84844 19.2412 9.48761 18.8804 9.04256 18.8804H3.40463C2.46909 18.8804 1.70801 19.6414 1.70801 20.577V25.9425C1.70801 25.9482 1.70876 25.9537 1.70887 25.9592C1.70908 25.9684 1.70973 25.9773 1.71026 25.9864C1.71177 26.0151 1.71478 26.0435 1.71929 26.0713C1.72036 26.0779 1.72111 26.0846 1.72229 26.0912C1.72885 26.1261 1.73744 26.1601 1.74829 26.1932C1.74969 26.1976 1.75151 26.2019 1.75302 26.2062C1.76344 26.2362 1.77558 26.2653 1.78933 26.2934C1.79212 26.2993 1.7948 26.3053 1.79781 26.3111C1.81393 26.3423 1.83176 26.3724 1.85174 26.4012C1.85496 26.4058 1.85861 26.4102 1.86194 26.4148C1.88031 26.4402 1.90019 26.4643 1.92135 26.4873C1.92446 26.4908 1.92683 26.4946 1.93005 26.498L16.4278 41.7314C16.5781 41.8893 16.6608 42.0963 16.6608 42.3141V50.4784C16.6608 50.9701 16.9267 51.4259 17.3544 51.6678L22.9273 54.8206C23.1386 54.9402 23.3696 54.9999 23.6005 54.9998C23.8372 54.9998 24.0738 54.937 24.2887 54.8118C24.7134 54.5642 24.9669 54.1229 24.9669 53.6312V49.7044C24.9669 49.2594 24.6061 48.8985 24.161 48.8985C23.716 48.8985 23.3551 49.2593 23.3551 49.7044V53.211L18.2724 50.3354V42.3141C18.2724 41.6808 18.0318 41.0792 17.5951 40.6203L4.39313 26.7484H37.2348L35.6081 28.4577C35.6065 28.4594 35.6049 28.4611 35.6033 28.4628L24.0325 40.6206C23.5959 41.0794 23.3553 41.681 23.3553 42.3143V45.9441C23.3553 46.3892 23.7162 46.75 24.1612 46.75C24.6063 46.75 24.9671 46.3893 24.9671 45.9441V42.3143C24.9671 42.0964 25.0498 41.8895 25.2001 41.7317L32.382 34.1853C32.8463 34.4126 33.3244 34.6132 33.8111 34.7812C33.9552 34.8309 34.052 34.9615 34.052 35.1061V36.9984C34.052 38.0742 34.9273 38.9493 36.003 38.9493H39.8867C40.9624 38.9493 41.8377 38.0742 41.8377 36.9984V35.1061C41.8377 34.9615 41.9345 34.8309 42.0785 34.7812C43.7255 34.2125 45.2142 33.3243 46.503 32.1412C46.6102 32.043 46.7672 32.0232 46.8938 32.0916L48.5608 32.9951C49.5065 33.5076 50.693 33.155 51.2056 32.2092L53.0559 28.7944C53.3041 28.3363 53.3591 27.8088 53.2107 27.3093C53.0623 26.8096 52.7282 26.3979 52.2701 26.1496ZM51.6389 28.0266L49.7885 31.4411C49.6994 31.6057 49.4931 31.667 49.3284 31.5779L47.6617 30.6746C46.9306 30.2785 46.0269 30.3904 45.4131 30.9537C44.2881 31.9865 42.9892 32.7617 41.5525 33.2578C40.7591 33.5317 40.2261 34.2746 40.2261 35.1061V36.9984C40.2261 37.1855 40.0738 37.3377 39.8867 37.3377H36.003C35.8158 37.3377 35.6636 37.1855 35.6636 36.9984V35.1061C35.6636 34.2746 35.1306 33.5318 34.3371 33.2577C34.0732 33.1666 33.8128 33.0634 33.5557 32.952L36.445 29.916C36.936 30.0193 37.4386 30.0714 37.9448 30.0714C39.2284 30.0714 40.4902 29.7315 41.5937 29.0887C41.9782 28.8647 42.1084 28.3713 41.8843 27.9867C41.6602 27.6022 41.167 27.4724 40.7823 27.696C39.9248 28.1956 38.9438 28.4597 37.9448 28.4597C37.9075 28.4597 37.8702 28.4585 37.8328 28.4578L39.6979 26.4981C39.7011 26.4947 39.7034 26.4909 39.7066 26.4874C39.7277 26.4645 39.7476 26.4403 39.766 26.4149C39.7693 26.4103 39.7729 26.4059 39.7762 26.4013C39.7962 26.3726 39.814 26.3424 39.8301 26.3112C39.8331 26.3054 39.8357 26.2995 39.8386 26.2935C39.8523 26.2653 39.8645 26.2363 39.8749 26.2063C39.8764 26.2019 39.8782 26.1977 39.8796 26.1933C39.8905 26.1602 39.8992 26.1262 39.9056 26.0913C39.9069 26.0847 39.9075 26.0781 39.9086 26.0714C39.9131 26.0436 39.9161 26.0152 39.9176 25.9865C39.9182 25.9775 39.9188 25.9685 39.919 25.9594C39.9191 25.9537 39.9199 25.9482 39.9199 25.9426V20.5771C39.9199 19.6416 39.1588 18.8805 38.2233 18.8805H33.8962C34.946 17.8016 36.4007 17.1691 37.9447 17.1691C41.0576 17.1691 43.5902 19.7016 43.5902 22.8145C43.5902 23.7013 43.3907 24.5498 42.9972 25.3363C42.7982 25.7343 42.9593 26.2185 43.3573 26.4175C43.4731 26.4754 43.5961 26.5029 43.7173 26.5029C44.0128 26.5028 44.2973 26.3396 44.4386 26.0574C44.9451 25.0451 45.2018 23.9541 45.2018 22.8146C45.2018 18.813 41.9463 15.5576 37.9447 15.5576C35.4717 15.5576 33.177 16.8194 31.8456 18.8806H25.8972L24.3872 18.0622C24.2797 18.004 24.2387 17.9109 24.2237 17.8607C24.2088 17.8103 24.1924 17.7099 24.2507 17.6024L26.101 14.1878C26.1902 14.0233 26.3967 13.962 26.5611 14.051L28.2279 14.9543C28.9591 15.3506 29.8627 15.2387 30.4764 14.6752C31.6016 13.6425 32.9005 12.8672 34.3372 12.3711C35.1306 12.0973 35.6636 11.3544 35.6636 10.5228V8.63038C35.6636 8.44325 35.8158 8.29103 36.003 8.29103H39.8867C40.0738 8.29103 40.2261 8.44325 40.2261 8.63038V10.5226C40.2261 11.3542 40.7591 12.0969 41.5525 12.3709C42.9891 12.867 44.288 13.6423 45.4132 14.675C46.0268 15.2383 46.9305 15.3504 47.6617 14.9541L49.3286 14.0509C49.4931 13.9616 49.6995 14.023 49.7886 14.1875L51.639 17.6021C51.6973 17.7097 51.6809 17.8101 51.6659 17.8605C51.651 17.9108 51.6099 18.0038 51.5023 18.0621L49.837 18.9646C49.1066 19.3603 48.7073 20.1795 48.8433 21.003C48.9416 21.598 48.9915 22.2074 48.9915 22.8144C48.9915 23.4213 48.9416 24.0307 48.8432 24.6258C48.7072 25.4492 49.1065 26.2683 49.8369 26.6641L51.5022 27.5667C51.6098 27.6249 51.6508 27.7181 51.6657 27.7682C51.6808 27.8186 51.6972 27.9191 51.6389 28.0266Z" fill="#4CB75D"/>
<path d="M2.5134 8.15611C2.95845 8.15611 3.31928 7.79538 3.31928 7.35023V3.7879C3.31928 3.34286 2.95845 2.98203 2.5134 2.98203C2.06835 2.98203 1.70752 3.34275 1.70752 3.7879V7.35023C1.70763 7.79538 2.06835 8.15611 2.5134 8.15611Z" fill="#A8EBB3"/>
<path d="M16.0036 16.6243C16.4487 16.6243 16.8095 16.2636 16.8095 15.8184V12.256C16.8095 11.8109 16.4487 11.4501 16.0036 11.4501C15.5586 11.4501 15.1978 11.8108 15.1978 12.256V15.8184C15.1978 16.2636 15.5586 16.6243 16.0036 16.6243Z" fill="#A8EBB3"/>
<path d="M12.5715 5.17397C13.0166 5.17397 13.3774 4.81325 13.3774 4.3681V0.805879C13.3774 0.36083 13.0166 0 12.5715 0C12.1265 0 11.7656 0.360723 11.7656 0.805879V4.3682C11.7656 4.81325 12.1265 5.17397 12.5715 5.17397Z" fill="#A8EBB3"/>
<path d="M28.968 6.95524C29.413 6.95524 29.7739 6.59452 29.7739 6.14936V2.58704C29.7739 2.14199 29.413 1.78116 28.968 1.78116C28.5229 1.78116 28.1621 2.14188 28.1621 2.58704V6.14936C28.1622 6.59452 28.5229 6.95524 28.968 6.95524Z" fill="#A8EBB3"/>
<path d="M8.87237 12.8144C10.3841 12.8144 11.614 11.5846 11.614 10.0729C11.614 8.56129 10.3841 7.33142 8.87237 7.33142C7.36073 7.33142 6.13086 8.56129 6.13086 10.0729C6.13086 11.5846 7.36073 12.8144 8.87237 12.8144ZM8.87237 8.94307C9.49542 8.94307 10.0022 9.44989 10.0022 10.0729C10.0022 10.696 9.49542 11.2028 8.87237 11.2028C8.24933 11.2028 7.74251 10.696 7.74251 10.0729C7.74251 9.44989 8.24943 8.94307 8.87237 8.94307Z" fill="#A8EBB3"/>
<path d="M21.2782 10.7111C22.7899 10.7111 24.0198 9.48126 24.0198 7.96962C24.0198 6.45787 22.7899 5.228 21.2782 5.228C19.7665 5.228 18.5366 6.45787 18.5366 7.96962C18.5367 9.48126 19.7666 10.7111 21.2782 10.7111ZM21.2782 6.83965C21.9013 6.83965 22.4081 7.34657 22.4081 7.96962C22.4081 8.59267 21.9013 9.09948 21.2782 9.09948C20.6552 9.09948 20.1484 8.59267 20.1484 7.96962C20.1484 7.34657 20.6552 6.83965 21.2782 6.83965Z" fill="#A8EBB3"/>
</g>
<defs>
<clipPath id="clip0_118_2494">
<rect width="55" height="55" fill="white"/>
</clipPath>
</defs>
</svg>
